<svg width="1552" height="1553" xmlns="http://www.w3.org/2000/svg" xmlns:xlink="http://www.w3.org/1999/xlink" xml:space="preserve" overflow="hidden"><defs><clipPath id="clip0"><rect x="1424" y="461" width="1552" height="1553"/></clipPath></defs><g clip-path="url(#clip0)" transform="translate(-1424 -461)"><path d="M2317.38 1948.07 2317.38 1851.19C2400.02 1835.47 2480.13 1802.5 2552.13 1752.8L2621.08 1821.78C2646.94 1847.14 2688.01 1847.14 2713.87 1821.78L2785.36 1750.26C2810.71 1724.4 2810.71 1683.32 2785.36 1657.45L2715.39 1587.46C2764.06 1515.44 2796.01 1435.3 2811.22 1353.14L2910.59 1353.14C2946.59 1353.14 2976 1323.72 2976 1287.71L2976 1186.27C2976 1150.26 2946.59 1120.85 2910.59 1120.85L2810.71 1120.85C2794.99 1038.68 2762.54 959.563 2713.87 888.05L2784.85 817.044C2810.2 791.177 2810.2 750.095 2784.85 724.229L2712.35 652.209C2686.49 626.849 2645.42 626.849 2619.56 652.209L2548.58 723.214C2477.09 674.525 2397.49 642.065 2315.35 626.342L2315.35 526.427C2315.35 490.417 2285.94 461 2249.94 461L2148.54 461C2112.54 461 2083.13 490.417 2083.13 526.427L2083.13 625.835C2000.99 641.05 1920.88 673.51 1848.89 722.2L1779.42 653.223C1753.57 627.864 1712.5 627.864 1686.64 653.223L1615.15 725.243C1589.8 751.11 1589.8 792.192 1615.15 818.058L1684.1 887.035C1634.42 959.056 1601.97 1039.19 1586.25 1121.86L1489.41 1121.86C1453.41 1121.86 1424 1151.28 1424 1187.29L1424 1288.73C1424 1324.74 1453.41 1354.15 1489.41 1354.15L1585.74 1354.15C1601.46 1437.33 1633.91 1517.97 1683.09 1589.99L1616.16 1658.46C1590.81 1684.33 1590.81 1725.41 1616.16 1751.28L1687.65 1822.79C1713.51 1848.15 1754.58 1848.15 1780.44 1822.79L1848.38 1754.83C1920.88 1804.03 2001.5 1836.49 2084.65 1852.21L2084.65 1948.57C2084.65 1984.58 2114.06 2014 2150.06 2014L2251.46 2014C2287.97 2013.49 2317.38 1984.08 2317.38 1948.07ZM1961.45 1476.89C1829.62 1345.02 1829.11 1130.99 1960.94 999.123 2092.76 867.255 2306.73 866.748 2438.55 998.616 2570.38 1130.48 2570.89 1344.52 2439.06 1476.38 2307.74 1608.25 2093.78 1608.76 1961.45 1476.89Z" fill="#FFFFFF" fill-rule="evenodd"/></g></svg>