<svg width="1946" height="2122" xmlns="http://www.w3.org/2000/svg" xmlns:xlink="http://www.w3.org/1999/xlink" xml:space="preserve" overflow="hidden"><defs><clipPath id="clip0"><rect x="1235" y="-211" width="1946" height="2122"/></clipPath></defs><g clip-path="url(#clip0)" transform="translate(-1235 211)"><path d="M707.344 1281.43 707.344 486.053C707.344 473.166 703.2 462.579 694.912 454.294 686.623 446.009 676.032 441.866 663.14 441.866L574.73 441.866C561.838 441.866 551.247 446.009 542.958 454.294 534.67 462.579 530.526 473.166 530.526 486.053L530.526 1281.43C530.526 1294.32 534.67 1304.9 542.958 1313.19 551.247 1321.47 561.838 1325.62 574.73 1325.62L663.14 1325.62C676.032 1325.62 686.623 1321.47 694.912 1313.19 703.2 1304.9 707.344 1294.32 707.344 1281.43ZM1060.98 1281.43 1060.98 486.053C1060.98 473.166 1056.84 462.579 1048.55 454.294 1040.26 446.009 1029.67 441.866 1016.78 441.866L928.367 441.866C915.474 441.866 904.883 446.009 896.595 454.294 888.306 462.579 884.162 473.166 884.162 486.053L884.162 1281.43C884.162 1294.32 888.306 1304.9 896.595 1313.19 904.883 1321.47 915.474 1325.62 928.367 1325.62L1016.78 1325.62C1029.67 1325.62 1040.26 1321.47 1048.55 1313.19 1056.84 1304.9 1060.98 1294.32 1060.98 1281.43ZM1414.62 1281.43 1414.62 486.053C1414.62 473.166 1410.47 462.579 1402.18 454.294 1393.9 446.009 1383.3 441.866 1370.41 441.866L1282 441.866C1269.11 441.866 1258.52 446.009 1250.23 454.294 1241.94 462.579 1237.8 473.166 1237.8 486.053L1237.8 1281.43C1237.8 1294.32 1241.94 1304.9 1250.23 1313.19 1258.52 1321.47 1269.11 1325.62 1282 1325.62L1370.41 1325.62C1383.3 1325.62 1393.9 1321.47 1402.18 1313.19 1410.47 1304.9 1414.62 1294.32 1414.62 1281.43ZM1591.44 281.686 1591.44 1590.74 353.708 1590.74 353.708 281.686C353.708 261.434 356.93 242.792 363.377 225.762 369.824 208.731 376.5 196.303 383.407 188.478 390.315 180.653 395.149 176.741 397.912 176.741L1547.23 176.741C1549.99 176.741 1554.83 180.653 1561.74 188.478 1568.64 196.303 1575.31 208.731 1581.77 225.762 1588.22 242.792 1591.44 261.434 1591.44 281.686ZM663.14 1767.49 1282 1767.49 1215.7 1929.05C1209.25 1937.34 1201.42 1942.4 1192.21 1944.24L754.311 1944.24C745.102 1942.4 737.275 1937.34 730.828 1929.05ZM1945.07 1723.3 1945.07 1634.93C1945.07 1622.05 1940.93 1611.45 1932.64 1603.17 1924.35 1594.88 1913.76 1590.74 1900.87 1590.74L1768.25 1590.74 1768.25 281.686C1768.25 205.279 1746.61 139.228 1703.33 83.533 1660.05 27.8387 1608.01-0.00902049 1547.23-0.00902049L397.912-0.00902049C337.131-0.00902049 285.098 26.9179 241.815 80.7713 198.532 134.625 176.89 199.755 176.89 276.163L176.89 1590.74 44.2759 1590.74C31.3828 1590.74 20.7923 1594.88 12.504 1603.17 4.21528 1611.45 0.0711089 1622.05 0.0711089 1634.93L0.0711089 1723.3C0.0711089 1736.19 4.21528 1746.78 12.504 1755.06 20.7923 1763.35 31.3828 1767.49 44.2759 1767.49L471.126 1767.49 567.823 1998.09C581.637 2032.16 606.502 2061.16 642.419 2085.09 678.335 2109.02 714.711 2120.99 751.548 2120.99L1193.59 2120.99C1230.43 2120.99 1266.81 2109.02 1302.72 2085.09 1338.64 2061.16 1363.51 2032.16 1377.32 1998.09L1474.02 1767.49 1900.87 1767.49C1913.76 1767.49 1924.35 1763.35 1932.64 1755.06 1940.93 1746.78 1945.07 1736.19 1945.07 1723.3Z" fill="#FFFFFF" fill-rule="evenodd" transform="matrix(1 0 0 -1 1235 1910)"/></g></svg>